<svg xmlns="http://www.w3.org/2000/svg" xmlns:xlink="http://www.w3.org/1999/xlink" contentStyleType="text/css" data-diagram-type="SEQUENCE" height="386px" preserveAspectRatio="none" style="width:762px;height:386px;background:#FFFFFF;" version="1.1" viewBox="0 0 762 386" width="762px" zoomAndPan="magnify"><defs/><g><g><title>Support System</title><rect fill="#FFFFFF" height="117.3984" style="stroke:#181818;stroke-width:1;" width="10" x="165.895" y="170.6953"/></g><g><title>SupportAgent</title><rect fill="#FFFFFF" height="97.2656" style="stroke:#181818;stroke-width:1;" width="10" x="441.8931" y="199.8281"/></g><g><title>SupportAgent</title><rect fill="#FFFFFF" height="30" style="stroke:#181818;stroke-width:1;" width="10" x="446.8931" y="228.9609"/></g><g><title>SystemSystem</title><rect fill="#FFFFFF" height="68.1328" style="stroke:#181818;stroke-width:1;" width="10" x="692.6333" y="228.9609"/></g><g><title>Customer</title><rect fill="#000000" fill-opacity="0.00000" height="224.7969" width="8" x="38.002" y="81.2969"/><line style="stroke:#181818;stroke-width:0.5;stroke-dasharray:5.0,5.0;" x1="42" x2="42" y1="81.2969" y2="306.0938"/></g><g><title>Support System</title><rect fill="#000000" fill-opacity="0.00000" height="224.7969" width="8" x="166.895" y="81.2969"/><line style="stroke:#181818;stroke-width:0.5;stroke-dasharray:5.0,5.0;" x1="170.895" x2="170.895" y1="81.2969" y2="306.0938"/></g><g><title>SupportAgent</title><rect fill="#000000" fill-opacity="0.00000" height="224.7969" width="8" x="442.8931" y="81.2969"/><line style="stroke:#181818;stroke-width:0.5;stroke-dasharray:5.0,5.0;" x1="446.5015" x2="446.5015" y1="81.2969" y2="306.0938"/></g><g><title>Support Ticket</title><rect fill="#000000" fill-opacity="0.00000" height="224.7969" width="8" x="566.356" y="81.2969"/><line style="stroke:#181818;stroke-width:0.5;stroke-dasharray:5.0,5.0;" x1="570.2847" x2="570.2847" y1="81.2969" y2="306.0938"/></g><g><title>SystemSystem</title><rect fill="#000000" fill-opacity="0.00000" height="224.7969" width="8" x="693.6333" y="81.2969"/><line style="stroke:#181818;stroke-width:0.5;stroke-dasharray:5.0,5.0;" x1="697.4272" x2="697.4272" y1="81.2969" y2="306.0938"/></g><g class="participant participant-head" data-participant="Customer"><text fill="#000000" font-family="sans-serif" font-size="14" lengthAdjust="spacing" textLength="68.0039" x="5" y="77.9951">Customer</text><ellipse cx="42.002" cy="13.5" fill="#E2E2F0" rx="8" ry="8" style="stroke:#181818;stroke-width:0.5;"/><path d="M42.002,21.5 L42.002,48.5 M29.002,29.5 L55.002,29.5 M42.002,48.5 L29.002,63.5 M42.002,48.5 L55.002,63.5" fill="none" style="stroke:#181818;stroke-width:0.5;"/></g><g class="participant participant-tail" data-participant="Customer"><text fill="#000000" font-family="sans-serif" font-size="14" lengthAdjust="spacing" textLength="68.0039" x="5" y="318.0889">Customer</text><ellipse cx="42.002" cy="329.8906" fill="#E2E2F0" rx="8" ry="8" style="stroke:#181818;stroke-width:0.5;"/><path d="M42.002,337.8906 L42.002,364.8906 M29.002,345.8906 L55.002,345.8906 M42.002,364.8906 L29.002,379.8906 M42.002,364.8906 L55.002,379.8906" fill="none" style="stroke:#181818;stroke-width:0.5;"/></g><g class="participant participant-head" data-participant="System"><rect fill="#E2E2F0" height="30.2969" rx="2.5" ry="2.5" style="stroke:#181818;stroke-width:0.5;" width="126" x="107.895" y="50"/><text fill="#000000" font-family="sans-serif" font-size="14" lengthAdjust="spacing" textLength="112" x="114.895" y="69.9951">Support System</text></g><g class="participant participant-tail" data-participant="System"><rect fill="#E2E2F0" height="30.2969" rx="2.5" ry="2.5" style="stroke:#181818;stroke-width:0.5;" width="126" x="107.895" y="305.0938"/><text fill="#000000" font-family="sans-serif" font-size="14" lengthAdjust="spacing" textLength="112" x="114.895" y="325.0889">Support System</text></g><g class="participant participant-head" data-participant="SupportAgent"><rect fill="#E2E2F0" height="30.2969" rx="2.5" ry="2.5" style="stroke:#181818;stroke-width:0.5;" width="110.7832" x="391.5015" y="50"/><text fill="#000000" font-family="sans-serif" font-size="14" lengthAdjust="spacing" textLength="96.7832" x="398.5015" y="69.9951">SupportAgent</text></g><g class="participant participant-tail" data-participant="SupportAgent"><rect fill="#E2E2F0" height="30.2969" rx="2.5" ry="2.5" style="stroke:#181818;stroke-width:0.5;" width="110.7832" x="391.5015" y="305.0938"/><text fill="#000000" font-family="sans-serif" font-size="14" lengthAdjust="spacing" textLength="96.7832" x="398.5015" y="325.0889">SupportAgent</text></g><g class="participant participant-head" data-participant="Ticket"><rect fill="#E2E2F0" height="30.2969" rx="2.5" ry="2.5" style="stroke:#181818;stroke-width:0.5;" width="116.1426" x="512.2847" y="50"/><text fill="#000000" font-family="sans-serif" font-size="14" lengthAdjust="spacing" textLength="102.1426" x="519.2847" y="69.9951">Support Ticket</text></g><g class="participant participant-tail" data-participant="Ticket"><rect fill="#E2E2F0" height="30.2969" rx="2.5" ry="2.5" style="stroke:#181818;stroke-width:0.5;" width="116.1426" x="512.2847" y="305.0938"/><text fill="#000000" font-family="sans-serif" font-size="14" lengthAdjust="spacing" textLength="102.1426" x="519.2847" y="325.0889">Support Ticket</text></g><g class="participant participant-head" data-participant="SystemSystem"><rect fill="#E2E2F0" height="30.2969" rx="2.5" ry="2.5" style="stroke:#181818;stroke-width:0.5;" width="118.4121" x="638.4272" y="50"/><text fill="#000000" font-family="sans-serif" font-size="14" lengthAdjust="spacing" textLength="104.4121" x="645.4272" y="69.9951">SystemSystem</text></g><g class="participant participant-tail" data-participant="SystemSystem"><rect fill="#E2E2F0" height="30.2969" rx="2.5" ry="2.5" style="stroke:#181818;stroke-width:0.5;" width="118.4121" x="638.4272" y="305.0938"/><text fill="#000000" font-family="sans-serif" font-size="14" lengthAdjust="spacing" textLength="104.4121" x="645.4272" y="325.0889">SystemSystem</text></g><g><title>Support System</title><rect fill="#FFFFFF" height="117.3984" style="stroke:#181818;stroke-width:1;" width="10" x="165.895" y="170.6953"/></g><g><title>SupportAgent</title><rect fill="#FFFFFF" height="97.2656" style="stroke:#181818;stroke-width:1;" width="10" x="441.8931" y="199.8281"/></g><g><title>SupportAgent</title><rect fill="#FFFFFF" height="30" style="stroke:#181818;stroke-width:1;" width="10" x="446.8931" y="228.9609"/></g><g><title>SystemSystem</title><rect fill="#FFFFFF" height="68.1328" style="stroke:#181818;stroke-width:1;" width="10" x="692.6333" y="228.9609"/></g><g class="message" data-participant-1="Customer" data-participant-2="System"><polygon fill="#181818" points="158.895,108.4297,168.895,112.4297,158.895,116.4297,162.895,112.4297" style="stroke:#181818;stroke-width:1;"/><line style="stroke:#181818;stroke-width:1;" x1="42.002" x2="164.895" y1="112.4297" y2="112.4297"/><text fill="#000000" font-family="sans-serif" font-size="13" lengthAdjust="spacing" textLength="86.9375" x="49.002" y="107.3638">Create Ticket</text></g><g class="message" data-participant-1="Ticket" data-participant-2="System"><polygon fill="#181818" points="181.895,137.5625,171.895,141.5625,181.895,145.5625,177.895,141.5625" style="stroke:#181818;stroke-width:1;"/><line style="stroke:#181818;stroke-width:1;" x1="175.895" x2="569.356" y1="141.5625" y2="141.5625"/><text fill="#000000" font-family="sans-serif" font-size="13" lengthAdjust="spacing" textLength="86.9375" x="187.895" y="136.4966">Create Ticket</text></g><g class="message" data-participant-1="Customer" data-participant-2="System"><polygon fill="#181818" points="153.895,166.6953,163.895,170.6953,153.895,174.6953,157.895,170.6953" style="stroke:#181818;stroke-width:1;"/><line style="stroke:#181818;stroke-width:1;" x1="42.002" x2="159.895" y1="170.6953" y2="170.6953"/><text fill="#000000" font-family="sans-serif" font-size="13" lengthAdjust="spacing" textLength="89.5718" x="49.002" y="165.6294">Submit Ticket</text></g><g class="message" data-participant-1="System" data-participant-2="SupportAgent"><polygon fill="#181818" points="429.8931,195.8281,439.8931,199.8281,429.8931,203.8281,433.8931,199.8281" style="stroke:#181818;stroke-width:1;"/><line style="stroke:#181818;stroke-width:1;" x1="175.895" x2="435.8931" y1="199.8281" y2="199.8281"/><text fill="#000000" font-family="sans-serif" font-size="13" lengthAdjust="spacing" textLength="85.998" x="182.895" y="194.7622">Assign Ticket</text></g><g class="message" data-participant-1="System" data-participant-2="SupportAgent"><polygon fill="#181818" points="434.8931,224.9609,444.8931,228.9609,434.8931,232.9609,438.8931,228.9609" style="stroke:#181818;stroke-width:1;"/><line style="stroke:#181818;stroke-width:1;" x1="175.895" x2="440.8931" y1="228.9609" y2="228.9609"/><text fill="#000000" font-family="sans-serif" font-size="13" lengthAdjust="spacing" textLength="241.998" x="182.895" y="223.895">Assign Tickets and Notify User to see</text></g><g class="message" data-participant-1="System" data-participant-2="Customer"><polygon fill="#181818" points="53.002,284.0938,43.002,288.0938,53.002,292.0938,49.002,288.0938" style="stroke:#181818;stroke-width:1;"/><line style="stroke:#181818;stroke-width:1;" x1="47.002" x2="169.895" y1="288.0938" y2="288.0938"/><text fill="#000000" font-family="sans-serif" font-size="13" lengthAdjust="spacing" textLength="99.8931" x="59.002" y="283.0278">Send Response</text></g><!--SRC=[ZP3D3e8m3CVlUug6ko_WmOHmzo3w07DKqXYsPIqclBq3Xa6PnjEQxFV_QBKH5w3gMLo7GNaTX0nvRGMAklVU1O5wOC6k0Crfp69bYrQAlCEPp1rbSfX7jIJ2xf1COGzLG2su8FFp0yXwrFsreoLHQIFq62Mfk4hSg5ZLZhgIcLgxrQseVzKCsZPmT4At0IuS2ue3HeHljWtcFpxQRtTuNI3kZJ7pXEoTPNnpdEWd]--></g></svg>