<svg xmlns="http://www.w3.org/2000/svg" xmlns:xlink="http://www.w3.org/1999/xlink" contentStyleType="text/css" data-diagram-type="SEQUENCE" height="298px" preserveAspectRatio="none" style="width:360px;height:298px;background:#FFFFFF;" version="1.1" viewBox="0 0 360 298" width="360px" zoomAndPan="magnify"><defs/><g><g><title>Support System</title><rect fill="#FFFFFF" height="96.3984" style="stroke:#181818;stroke-width:1;" width="10" x="165.895" y="112.4297"/></g><g><title>Support System</title><rect fill="#FFFFFF" height="29.1328" style="stroke:#181818;stroke-width:1;" width="10" x="170.895" y="170.6953"/></g><g><title>SupportAgent</title><rect fill="#FFFFFF" height="29.1328" style="stroke:#181818;stroke-width:1;" width="10" x="294.2866" y="141.5625"/></g><g><title>Customer</title><rect fill="#000000" fill-opacity="0.00000" height="136.5313" width="8" x="38.002" y="81.2969"/><line style="stroke:#181818;stroke-width:0.5;stroke-dasharray:5.0,5.0;" x1="42" x2="42" y1="81.2969" y2="217.8281"/></g><g><title>Support System</title><rect fill="#000000" fill-opacity="0.00000" height="136.5313" width="8" x="166.895" y="81.2969"/><line style="stroke:#181818;stroke-width:0.5;stroke-dasharray:5.0,5.0;" x1="170.895" x2="170.895" y1="81.2969" y2="217.8281"/></g><g><title>SupportAgent</title><rect fill="#000000" fill-opacity="0.00000" height="136.5313" width="8" x="295.2866" y="81.2969"/><line style="stroke:#181818;stroke-width:0.5;stroke-dasharray:5.0,5.0;" x1="298.895" x2="298.895" y1="81.2969" y2="217.8281"/></g><g class="participant participant-head" data-participant="Customer"><text fill="#000000" font-family="sans-serif" font-size="14" lengthAdjust="spacing" textLength="68.0039" x="5" y="77.9951">Customer</text><ellipse cx="42.002" cy="13.5" fill="#E2E2F0" rx="8" ry="8" style="stroke:#181818;stroke-width:0.5;"/><path d="M42.002,21.5 L42.002,48.5 M29.002,29.5 L55.002,29.5 M42.002,48.5 L29.002,63.5 M42.002,48.5 L55.002,63.5" fill="none" style="stroke:#181818;stroke-width:0.5;"/></g><g class="participant participant-tail" data-participant="Customer"><text fill="#000000" font-family="sans-serif" font-size="14" lengthAdjust="spacing" textLength="68.0039" x="5" y="229.8232">Customer</text><ellipse cx="42.002" cy="241.625" fill="#E2E2F0" rx="8" ry="8" style="stroke:#181818;stroke-width:0.5;"/><path d="M42.002,249.625 L42.002,276.625 M29.002,257.625 L55.002,257.625 M42.002,276.625 L29.002,291.625 M42.002,276.625 L55.002,291.625" fill="none" style="stroke:#181818;stroke-width:0.5;"/></g><g class="participant participant-head" data-participant="System"><rect fill="#E2E2F0" height="30.2969" rx="2.5" ry="2.5" style="stroke:#181818;stroke-width:0.5;" width="126" x="107.895" y="50"/><text fill="#000000" font-family="sans-serif" font-size="14" lengthAdjust="spacing" textLength="112" x="114.895" y="69.9951">Support System</text></g><g class="participant participant-tail" data-participant="System"><rect fill="#E2E2F0" height="30.2969" rx="2.5" ry="2.5" style="stroke:#181818;stroke-width:0.5;" width="126" x="107.895" y="216.8281"/><text fill="#000000" font-family="sans-serif" font-size="14" lengthAdjust="spacing" textLength="112" x="114.895" y="236.8232">Support System</text></g><g class="participant participant-head" data-participant="SupportAgent"><rect fill="#E2E2F0" height="30.2969" rx="2.5" ry="2.5" style="stroke:#181818;stroke-width:0.5;" width="110.7832" x="243.895" y="50"/><text fill="#000000" font-family="sans-serif" font-size="14" lengthAdjust="spacing" textLength="96.7832" x="250.895" y="69.9951">SupportAgent</text></g><g class="participant participant-tail" data-participant="SupportAgent"><rect fill="#E2E2F0" height="30.2969" rx="2.5" ry="2.5" style="stroke:#181818;stroke-width:0.5;" width="110.7832" x="243.895" y="216.8281"/><text fill="#000000" font-family="sans-serif" font-size="14" lengthAdjust="spacing" textLength="96.7832" x="250.895" y="236.8232">SupportAgent</text></g><g><title>Support System</title><rect fill="#FFFFFF" height="96.3984" style="stroke:#181818;stroke-width:1;" width="10" x="165.895" y="112.4297"/></g><g><title>Support System</title><rect fill="#FFFFFF" height="29.1328" style="stroke:#181818;stroke-width:1;" width="10" x="170.895" y="170.6953"/></g><g><title>SupportAgent</title><rect fill="#FFFFFF" height="29.1328" style="stroke:#181818;stroke-width:1;" width="10" x="294.2866" y="141.5625"/></g><g class="message" data-participant-1="Customer" data-participant-2="System"><polygon fill="#181818" points="153.895,108.4297,163.895,112.4297,153.895,116.4297,157.895,112.4297" style="stroke:#181818;stroke-width:1;"/><line style="stroke:#181818;stroke-width:1;" x1="42.002" x2="159.895" y1="112.4297" y2="112.4297"/><text fill="#000000" font-family="sans-serif" font-size="13" lengthAdjust="spacing" textLength="89.5718" x="49.002" y="107.3638">Submit Ticket</text></g><g class="message" data-participant-1="System" data-participant-2="SupportAgent"><polygon fill="#181818" points="282.2866,137.5625,292.2866,141.5625,282.2866,145.5625,286.2866,141.5625" style="stroke:#181818;stroke-width:1;"/><line style="stroke:#181818;stroke-width:1;" x1="175.895" x2="288.2866" y1="141.5625" y2="141.5625"/><text fill="#000000" font-family="sans-serif" font-size="13" lengthAdjust="spacing" textLength="85.998" x="182.895" y="136.4966">Assign Ticket</text></g><g class="message" data-participant-1="SupportAgent" data-participant-2="System"><polygon fill="#181818" points="191.895,166.6953,181.895,170.6953,191.895,174.6953,187.895,170.6953" style="stroke:#181818;stroke-width:1;"/><line style="stroke:#181818;stroke-width:1;" x1="185.895" x2="298.2866" y1="170.6953" y2="170.6953"/><text fill="#000000" font-family="sans-serif" font-size="13" lengthAdjust="spacing" textLength="56.5005" x="197.895" y="165.6294">Respond</text></g><g class="message" data-participant-1="System" data-participant-2="Customer"><polygon fill="#181818" points="53.002,195.8281,43.002,199.8281,53.002,203.8281,49.002,199.8281" style="stroke:#181818;stroke-width:1;"/><line style="stroke:#181818;stroke-width:1;" x1="47.002" x2="164.895" y1="199.8281" y2="199.8281"/><text fill="#000000" font-family="sans-serif" font-size="13" lengthAdjust="spacing" textLength="99.8931" x="59.002" y="194.7622">Send Response</text></g><!--SRC=[VOz12W8n303lUKNetGzu41P_OFr0RSCIPDlIf8A_jojTgRXuos5caZYlgU2vYgQ52cHNb3rd5nMDhJcdecYVehGOTDB7NMoQAQe1s5fuE7KSZsZhRM75A_ixAJYl_71AMmuwjnf3h7cJ2C_nrnkePe_EkFL2abCC46ZV_7F7vujsEyNGKq9VhJVz0W00]--></g></svg>